<svg xmlns="http://www.w3.org/2000/svg" width="104.881" height="116.285" fill="none" overflow="visible"><g fill="#6BBBAE"><path d="M22.004 67.784h60.628a1.5 1.5 0 0 0 1.5-1.5v-7.028a12.476 12.476 0 0 0-7.1-11.239 9.086 9.086 0 1 0-10.754 0 12.528 12.528 0 0 0-6.175 6.55 9.44 9.44 0 0 0-2.894-2.4 7.283 7.283 0 1 0-9.789 0 9.452 9.452 0 0 0-2.866 2.364 12.528 12.528 0 0 0-6.2-6.621 9.086 9.086 0 1 0-10.754 0 12.476 12.476 0 0 0-7.1 11.239v7.135a1.5 1.5 0 0 0 1.504 1.5ZM65.572 40.71a6.085 6.085 0 0 1 6.034-6.091 6.085 6.085 0 0 1 .196 12.17c-.048 0-.095-.008-.144-.008-.049 0-.1.007-.145.008a6.09 6.09 0 0 1-5.941-6.079Zm-3.389 18.546a9.481 9.481 0 0 1 9.33-9.467c.049 0 .1.007.145.007.045 0 .1-.007.144-.007a9.48 9.48 0 0 1 9.33 9.467v5.528H62.183ZM52.318 42.51a4.277 4.277 0 0 1 .106 8.553h-.212a4.276 4.276 0 0 1 .106-8.553Zm-.488 11.553h.276c.071 0 .14.01.212.01.072 0 .141-.008.212-.01h.275a6.384 6.384 0 0 1 6.378 6.374v4.344h-13.73v-4.344a6.383 6.383 0 0 1 6.377-6.374Zm-24.938-13.46a6.086 6.086 0 1 1 6.231 6.078c-.049 0-.1-.007-.145-.007-.045 0-.1.007-.144.007a6.09 6.09 0 0 1-5.942-6.078Zm-3.388 18.546a9.482 9.482 0 0 1 9.33-9.468c.048 0 .095.008.144.008.049 0 .1-.007.145-.008a9.482 9.482 0 0 1 9.33 9.468v5.635H23.504Z"/><path d="m43.735 30.614.031.025c4.319 3.35 6.738 5.027 9.147 5.027s4.826-1.691 9.134-5.075l.021-.017c11.334-8.916 10.64-17.662 9.815-21.01a12.239 12.239 0 0 0-9.3-9.394c-3.655-.679-7.194.7-9.944 3.791C49.507.746 45.671-.594 41.887.268a11.8 11.8 0 0 0-8.559 9.163c-.747 3.362-1.221 12.149 10.407 21.183ZM36.253 10.08a8.8 8.8 0 0 1 6.3-6.887c3.124-.711 6.391.763 8.966 4.041.292.376.748.589 1.224.572a1.5 1.5 0 0 0 1.187-.642c2.2-3.167 5.08-4.6 8.106-4.045 3.241.6 6.029 3.478 6.937 7.163 1.45 5.884-1.747 12.424-8.77 17.944l-.02.016c-3.817 3-5.722 4.441-7.265 4.444h-.005c-1.536 0-3.451-1.428-7.278-4.4l-.031-.025c-10.305-7.986-9.972-15.375-9.351-18.181Z"/><path d="M49.477 22.302a1.5 1.5 0 0 0 2.121 0l7.723-7.723a1.5 1.5 0 1 0-2.121-2.121l-6.659 6.662-2.856-2.856a1.5 1.5 0 1 0-2.124 2.121ZM38.962 85.064l-5.141-2.274-14.1-12.82c-.035-.032-.074-.059-.109-.09a7.639 7.639 0 0 0-.42-.342l-.037-.025a6.488 6.488 0 0 0-4.414-1.218L13.1 52.64a6.567 6.567 0 0 0-13.1.686v25.831a16.107 16.107 0 0 0 5.32 11.95l11.746 10.578a7.702 7.702 0 0 1 2.548 5.72v7.38a1.5 1.5 0 0 0 1.5 1.5H46.46a1.5 1.5 0 0 0 1.5-1.5V98.861a15.074 15.074 0 0 0-8.998-13.797Zm6 28.218H22.614v-5.877a10.701 10.701 0 0 0-3.542-7.951L7.329 88.879a13.105 13.105 0 0 1-4.328-9.722V53.326a3.566 3.566 0 0 1 7.115-.374l1.71 16.341a6.53 6.53 0 0 0-1.069 10.178l13.035 12.765a1.5 1.5 0 1 0 2.1-2.142L12.856 77.327a3.53 3.53 0 0 1 1.641-5.955c.093-.023.187-.035.281-.05a3.43 3.43 0 0 1 .596-.045c.108.002.181.009.271.017.139.012.278.033.415.061.131.026.261.059.388.1.082.027.162.064.242.1a3.638 3.638 0 0 1 .526.271c.174.108.338.23.491.365l14.28 12.988c.008.007.018.008.025.015.112.099.237.181.373.244l5.368 2.373a12.074 12.074 0 0 1 7.207 11.052Zm57.998-64.597a6.571 6.571 0 0 0-11.178 3.959l-1.641 15.651a6.5 6.5 0 0 0-4.986 1.676L71.061 82.79l-5.139 2.273a15.075 15.075 0 0 0-9 13.8v15.922a1.5 1.5 0 0 0 1.5 1.5h25.346a1.5 1.5 0 0 0 1.5-1.5v-7.38a7.703 7.703 0 0 1 2.55-5.722l11.743-10.576a16.107 16.107 0 0 0 5.32-11.95V53.326a6.524 6.524 0 0 0-1.921-4.641Zm-1.079 30.472a13.105 13.105 0 0 1-4.328 9.722L85.812 99.452a10.704 10.704 0 0 0-3.544 7.953v5.88H59.922V98.861a12.074 12.074 0 0 1 7.21-11.053l5.365-2.372c.135-.063.261-.145.372-.244.008-.006.018-.008.026-.015l3.8-3.456 10.48-9.531.024-.018c.146-.128.301-.244.465-.347.064-.04.13-.077.2-.113.109-.059.22-.112.334-.16.079-.033.156-.068.237-.095.148-.049.3-.089.453-.118a3.72 3.72 0 0 1 .334-.044 3.265 3.265 0 0 1 .59-.009c.097.01.208.021.311.038.088.014.177.025.264.046a3.53 3.53 0 0 1 1.644 5.958l-13.04 12.766a1.5 1.5 0 1 0 2.1 2.142l13.034-12.764a6.534 6.534 0 0 0 .1-9.24 6.615 6.615 0 0 0-1.164-.939l1.71-16.341a3.566 3.566 0 0 1 7.115.374Z"/></g></svg>