<svg xmlns="http://www.w3.org/2000/svg" width="93" height="93.001" fill="none" overflow="visible"><g fill="#6BBBAE"><path d="M4.227 86.559h4.362c-.319 3.386 2.241 6.463 5.703 6.442h14.426a18.55 18.55 0 0 0 15.465-8.277l1.703-2.554a.738.738 0 0 1 1.229 0l1.702 2.554A18.553 18.553 0 0 0 64.282 93h14.426c3.456.021 6.028-3.055 5.703-6.441h4.362A4.233 4.233 0 0 0 93 82.332v-9.394a4.233 4.233 0 0 0-4.227-4.228h-4.362v-3.623c9.33.753 11.474-12.226 2.416-14.351v-6.517c.017-18.808-12.989-35.123-31.328-39.298-.126-2.707-2.544-4.977-5.263-4.92h-7.462c-2.721-.021-5.12 2.207-5.303 4.929C18.067 9.564 6.173 26.242 6.173 44.219v6.521c-9.05 2.148-6.923 15.111 2.416 14.347v3.623H4.227A4.233 4.233 0 0 0 0 72.938v9.394a4.231 4.231 0 0 0 4.227 4.227Zm77.366.738a2.889 2.889 0 0 1-2.885 2.885H64.282a15.742 15.742 0 0 1-13.121-7.021c-1.137-1.615-2.285-4.277-4.661-4.139-2.783 0-4.78 4.28-4.661 4.139a15.742 15.742 0 0 1-13.121 7.021H14.292a2.889 2.889 0 0 1-2.885-2.885v-22.21h70.186c-.003 17.05-.001 22.068 0 22.21Zm7.18-15.768a1.41 1.41 0 0 1 1.409 1.409v9.394a1.411 1.411 0 0 1-1.409 1.409h-4.362V71.529ZM55.452 7.789a37.185 37.185 0 0 1 13.69 6.55v16.259c.008 1.841 2.81 1.845 2.818 0V16.714a37.191 37.191 0 0 1 12.049 27.504v6.375H53.802Zm-14.52-4.154a2.496 2.496 0 0 1 1.832-.816h7.472a2.495 2.495 0 0 1 2.483 2.589v.005l-1.737 45.181h-8.964L40.3 6.006a2.87 2.87 0 0 1 .632-2.371ZM8.991 44.219A37.19 37.19 0 0 1 21.04 16.714v13.884c.008 1.84 2.81 1.844 2.818 0V14.333a37.519 37.519 0 0 1 13.69-6.544l1.65 42.805H8.991Zm-1.409 18.05c-5.822-.149-5.846-8.682 0-8.857 70.443-.003 77.983.004 77.836 0 5.819.149 5.848 8.682 0 8.857-1.804.054-44.85 0-77.836 0ZM2.818 72.938a1.411 1.411 0 0 1 1.409-1.409h4.362v12.212H4.227a1.412 1.412 0 0 1-1.409-1.409Z"/><path d="M63.941 81.176c.681.377 1.538.13 1.914-.551l5.073-9.174a1.409 1.409 0 0 0-2.466-1.364l-5.072 9.174a1.409 1.409 0 0 0 .551 1.915Zm4.283 4.443a1.411 1.411 0 0 0 1.915-.553l7.476-13.541a1.41 1.41 0 0 0-2.467-1.362l-7.476 13.541a1.411 1.411 0 0 0 .552 1.915Z"/></g></svg>