<svg xmlns="http://www.w3.org/2000/svg" width="79.848" height="89.945" fill="none" overflow="visible"><path fill="#6BBBAE" d="M12.353 72.084c6.323 6.84 15.3 11.622 25.819 14.875l1.754.542 1.754-.542c10.518-3.253 19.5-8.035 25.819-14.875 6.276-6.788 9.959-15.651 9.959-27.124V12.244L39.926 2.428 2.394 12.244V44.96c0 11.473 3.683 20.336 9.959 27.124ZM37.471 89.24c-10.9-3.369-20.232-8.361-26.867-15.538C3.926 66.473 0 57.078 0 44.96V11.324a1.2 1.2 0 0 1 .991-1.179L39.626.04a1.22 1.22 0 0 1 .618 0l38.71 10.133c.526.137.894.612.894 1.155V44.96c0 12.118-3.922 21.514-10.6 28.742-6.635 7.177-15.97 12.171-26.867 15.538l-2.1.651a1.175 1.175 0 0 1-.709 0l-2.1-.649ZM15.452 63.144c.02-7.497 6.093-13.57 13.59-13.59H50.81c7.497.02 13.57 6.093 13.59 13.59v1.567c.095-.127.188-.256.281-.386 4.417-6.178 5.653-12.978 5.653-19.318V17.791L39.926 9.839 9.518 17.791v27.216c0 6.34 1.236 13.14 5.653 19.318.093.13.186.259.281.386Zm.387 5.767a1.214 1.214 0 0 1-.133-.144 32.8 32.8 0 0 1-2.48-3.059c-4.768-6.668-6.1-13.942-6.1-20.7V16.873a1.2 1.2 0 0 1 .991-1.179L39.626 7.45a1.2 1.2 0 0 1 .618.006l31.582 8.26c.529.135.9.611.9 1.157v28.134c0 6.76-1.334 14.034-6.1 20.7a32.89 32.89 0 0 1-2.48 3.066c-.041.052-.085.1-.133.144-4.927 5.324-12.439 10.071-23.736 13.564a1.18 1.18 0 0 1-.715 0c-11.29-3.493-18.8-8.238-23.723-13.565Zm24.087-43.013a7.932 7.932 0 1 0 .001 15.864 7.932 7.932 0 0 0-.001-15.864Zm0-2.394a10.325 10.325 0 1 1 .001 20.65 10.325 10.325 0 0 1-.001-20.65Zm11.801 43.238a1.198 1.198 0 0 1 1.821 1.109v6.345a38.658 38.658 0 0 0 8.457-6.632v-4.42c-.017-6.176-5.018-11.18-11.195-11.2H29.046c-6.178.019-11.182 5.022-11.2 11.2v4.42a38.747 38.747 0 0 0 8.458 6.632v-6.345a1.198 1.198 0 0 1 1.821-1.109c.384.233.605.662.573 1.109v7.678a68.254 68.254 0 0 0 11.228 4.56 68.254 68.254 0 0 0 11.228-4.56v-7.678a1.198 1.198 0 0 1 .573-1.109Z"/></svg>