<svg xmlns="http://www.w3.org/2000/svg" width="49.227" height="67.401" fill="none" overflow="visible"><path fill="#6BBBAE" d="M42.692 20.445h-4.313l-.304-4.297a6.725 6.725 0 0 0 1.258-3.867 6.709 6.709 0 0 0 1.734-4.52 6.765 6.765 0 0 0-6.758-6.757c-1.91 0-3.707.812-4.972 2.183a6.927 6.927 0 0 0-2.473.11 6.73 6.73 0 0 0-4.266-1.512 6.727 6.727 0 0 0-4.094 1.375A6.772 6.772 0 0 0 12.782 0c-1.844 0-3.555.73-4.809 2.004A6.765 6.765 0 0 0 0 8.652a6.76 6.76 0 0 0 4.044 6.184l-2.59 36.699c-.172 2.449.691 4.828 2.433 6.695a10.02 10.02 0 0 0 7.301 3.18h19.664c2.758 0 5.418-1.16 7.3-3.18 1.743-1.867 2.606-4.246 2.43-6.695l-.37-5.22h2.48a6.543 6.543 0 0 0 6.535-6.534V26.976a6.546 6.546 0 0 0-6.535-6.536ZM6.754 5.82c.398 0 .781.078 1.137.238a1.96 1.96 0 0 0 2.46-.773 2.818 2.818 0 0 1 2.422-1.36c1.282 0 2.41.864 2.739 2.098.18.676.71 1.207 1.386 1.387.231.062.454.152.665.273.91.52 2.066.23 2.628-.656a2.825 2.825 0 0 1 2.399-1.32c.863 0 1.672.386 2.215 1.066.57.711 1.55.938 2.37.547a2.858 2.858 0 0 1 2.24-.082 1.965 1.965 0 0 0 2.417-.863 2.846 2.846 0 0 1 2.473-1.446 2.84 2.84 0 0 1 2.836 2.836 2.831 2.831 0 0 1-1.059 2.211 1.968 1.968 0 0 0-.707 1.828 2.817 2.817 0 0 1-.773 2.414c-.067.07-.145.13-.22.188-.07.058-.14.125-.214.18-.055.035-.113.062-.168.093-.105.063-.21.13-.324.176-.008.004-.016.004-.024.008a2.83 2.83 0 0 1-1.082.215 2.809 2.809 0 0 1-2.441-1.395 2.016 2.016 0 0 0-.316-.402c-.07-.07-.153-.117-.23-.176-.06-.043-.11-.094-.173-.129-.063-.035-.137-.054-.203-.082-.09-.039-.176-.082-.27-.11-.058-.015-.117-.01-.175-.023-.106-.02-.211-.043-.32-.043h-.052a2.736 2.736 0 0 1-.72-.093 1.96 1.96 0 0 0-1.937.574 1.928 1.928 0 0 0-.296.41 2.827 2.827 0 0 1-2.512 1.52 2.845 2.845 0 0 1-2.574-1.649c-.23-.5-.664-.883-1.188-1.047a1.917 1.917 0 0 0-.36-.074c-.034-.004-.07-.004-.105-.008a1.396 1.396 0 0 0-.129-.008c-.027 0-.054.008-.082.012-.109.004-.218.02-.324.043-.047.012-.094.016-.14.031a2.008 2.008 0 0 0-.434.18 2.845 2.845 0 0 1-1.824.348 1.976 1.976 0 0 0-1.82.726 2.826 2.826 0 0 1-2.227 1.082 2.826 2.826 0 0 1-2.692-1.945 1.956 1.956 0 0 0-2.027-1.34c-.148.012-.3 0-.453-.012-1.46-.113-2.621-1.324-2.621-2.812A2.84 2.84 0 0 1 6.761 5.82Zm28.527 49.742a6.149 6.149 0 0 1-4.43 1.93H11.187a6.158 6.158 0 0 1-4.43-1.93c-.992-1.063-1.484-2.394-1.386-3.746l2.426-34.38c.164.118.336.224.508.325.035.02.074.04.109.063.219.125.445.238.68.336.011.003.023.011.039.015.238.098.488.18.738.254.047.012.094.027.14.04.247.062.5.112.754.151.047.008.094.012.141.016.27.031.54.055.816.055a6.714 6.714 0 0 0 4.578-1.785 6.8 6.8 0 0 0 1.516-.2 6.782 6.782 0 0 0 5.121 2.348 6.738 6.738 0 0 0 4.856-2.055 6.785 6.785 0 0 0 4.789 1.997c.277 0 .547-.024.816-.055.067-.008.13-.02.196-.031.218-.032.433-.075.644-.13.031-.007.067-.011.098-.019l.258 3.637c0 .055-.008.11-.004.168l.12 1.469 1.966 27.78c.097 1.352-.399 2.68-1.387 3.743Zm10.023-15.773a2.617 2.617 0 0 1-2.613 2.613h-2.559l-1.469-18.03h4.028a2.617 2.617 0 0 1 2.613 2.613ZM32.96 65.441c0 1.082-.879 1.96-1.96 1.96H11.033a1.96 1.96 0 0 1 0-3.92H31c1.082 0 1.961.878 1.961 1.96Z"/></svg>