<svg xmlns="http://www.w3.org/2000/svg" width="65.442" height="70.353" fill="none" overflow="visible"><path fill="#6BBBAE" d="M54.903 27.45h-.547v-3.453c0-1.207-.976-2.18-2.18-2.18L2.18 21.813A2.18 2.18 0 0 0 0 23.993v22.09c0 13.383 10.888 24.27 24.27 24.27h5.817c9.711 0 18.105-5.738 21.98-14h2.832c5.813 0 10.543-4.73 10.543-10.543v-7.816c0-5.813-4.73-10.543-10.543-10.543ZM30.087 65.989h-5.816c-10.977 0-19.906-8.93-19.906-19.906V26.177h45.628v19.906c0 .328-.008.656-.024.98-.004.118-.015.235-.023.352-.012.203-.028.41-.047.613-.016.153-.035.309-.055.461-.02.16-.039.324-.062.485-.047.307-.099.613-.157.918-.043.218-.09.433-.14.652-.02.078-.035.156-.055.234a20.159 20.159 0 0 1-.824 2.59c-.004.008-.004.012-.004.02-2.918 7.37-10.113 12.602-18.512 12.602Zm30.996-20.18a6.187 6.187 0 0 1-6.18 6.18h-1.277c.11-.434.203-.875.29-1.32l.062-.36c.058-.328.109-.66.152-.992l.058-.453c.036-.325.067-.649.09-.973.012-.14.024-.281.032-.422.027-.46.043-.922.043-1.39v-14.27h.546c3.41 0 6.18 2.773 6.18 6.18v7.816Zm-46.676-35.23c-.836-2.812-1.875-6.309.293-9.598a2.182 2.182 0 0 1 3.644 2.403c-.996 1.515-.554 3.25.247 5.957.816 2.746 1.832 6.16-.247 9.316a2.171 2.171 0 0 1-1.824.98 2.18 2.18 0 0 1-1.82-3.383c.914-1.386.484-3.058-.293-5.671Zm10.688 0c-.836-2.812-1.875-6.309.293-9.598a2.182 2.182 0 0 1 3.644 2.403c-.996 1.515-.554 3.25.247 5.957.816 2.746 1.832 6.16-.247 9.316a2.171 2.171 0 0 1-1.824.98 2.18 2.18 0 0 1-1.82-3.383c.914-1.386.484-3.058-.293-5.671Zm10.688 0c-.836-2.812-1.875-6.309.293-9.598a2.182 2.182 0 0 1 3.644 2.403c-.996 1.515-.554 3.25.247 5.957.816 2.746 1.832 6.16-.247 9.316a2.171 2.171 0 0 1-1.824.98 2.18 2.18 0 0 1-1.82-3.383c.914-1.386.484-3.058-.293-5.671Z"/></svg>