<svg xmlns="http://www.w3.org/2000/svg" width="74.97" height="55.242" fill="none" overflow="visible"><path fill="#6BBBAE" d="M27.997 41.156c5.14 0 9.324-4.184 9.324-9.324s-4.183-9.324-9.324-9.324-9.324 4.183-9.324 9.324c0 5.14 4.183 9.324 9.324 9.324Zm0-13.891a4.572 4.572 0 0 1 4.566 4.566 4.572 4.572 0 0 1-4.566 4.567 4.572 4.572 0 0 1-4.566-4.567 4.572 4.572 0 0 1 4.566-4.566Zm28.129 19.387c4.563 0 8.273-3.71 8.273-8.273s-3.71-8.274-8.273-8.274-8.273 3.711-8.273 8.274c0 4.563 3.71 8.273 8.273 8.273Zm0-11.789a3.52 3.52 0 0 1 3.516 3.516 3.52 3.52 0 0 1-3.516 3.515 3.52 3.52 0 0 1-3.516-3.515 3.522 3.522 0 0 1 3.516-3.516Zm18.812-20.738c-.008-.078-.008-.156-.023-.23v-.008C72.868 4.25 61.224-.457 51.294.035a2.135 2.135 0 0 0-.45.066L1.814 12.074c-.055.012-.098.035-.153.055-.086.027-.176.054-.258.09-.066.03-.129.07-.191.105-.07.04-.14.078-.203.121-.063.047-.121.098-.18.149-.055.05-.113.097-.164.148-.055.055-.098.117-.149.18-.048.059-.094.12-.136.183-.04.063-.074.133-.11.2-.035.07-.07.136-.101.207a1.562 1.562 0 0 0-.07.23c-.02.07-.043.14-.055.211-.016.09-.02.18-.028.27-.003.054-.015.105-.015.16v4.816c0 .631.25 1.236.697 1.682a2.375 2.375 0 0 0 1.682.697 3.52 3.52 0 0 1 3.515 3.516 3.52 3.52 0 0 1-3.515 3.515A2.38 2.38 0 0 0 0 30.989v21.87a2.377 2.377 0 0 0 2.38 2.379h5.863a2.384 2.384 0 0 0 2.383-2.41v-.063a4.36 4.36 0 0 1 4.355-4.355c2.402 0 4.356 1.953 4.356 4.328v.094c-.008.636.238 1.25.687 1.703.45.453 1.059.707 1.696.707h50.87a2.38 2.38 0 0 0 2.38-2.379V31.488c0-.863-.465-1.656-1.22-2.078a4.371 4.371 0 0 1-2.238-3.809c0-1.579.86-3.039 2.239-3.808a2.377 2.377 0 0 0 1.219-2.078v-5.329c0-.082-.016-.168-.028-.253ZM51.743 4.781c6.785-.254 14.305 2.332 17.328 7.223h-46.91Zm18.465 13.664a9.124 9.124 0 0 0-3.457 7.149 9.135 9.135 0 0 0 3.457 7.148v17.734l-46.402.004c-1.016-3.922-4.59-6.828-8.824-6.828-4.23 0-7.797 2.898-8.82 6.828H4.763V33.019c3.406-1.023 5.895-4.191 5.895-7.926 0-3.735-2.489-6.898-5.895-7.926v-.406l65.441.004v1.684Z"/></svg>