<svg xmlns="http://www.w3.org/2000/svg" width="64.183" height="63.569" fill="none" overflow="visible"><path fill="#6BBBAE" d="M62.222 33.043H35.617c-1.082 0-1.96.879-1.96 1.96v26.606a1.96 1.96 0 0 0 1.96 1.96c15.75 0 28.566-12.815 28.566-28.565a1.963 1.963 0 0 0-1.96-1.961ZM37.577 59.57V36.965h22.605c-.953 12.027-10.578 21.652-22.605 22.605Zm19.555-31.004C57.132 12.816 44.316 0 28.566 0 12.816 0 0 12.816 0 28.566c0 15.75 12.816 28.566 28.566 28.566 1.082 0 1.96-.879 1.96-1.96V30.525h24.647c1.082 0 1.96-.879 1.96-1.96Zm-28.566-1.96a1.96 1.96 0 0 0-1.96 1.96v24.566C13.928 52.128 3.92 41.495 3.92 28.566c0-13.59 11.055-24.645 24.645-24.645 12.93 0 23.562 10.008 24.566 22.684Zm-12.355 4.476a5.98 5.98 0 0 0-5.973 5.972 5.981 5.981 0 0 0 5.973 5.973 5.98 5.98 0 0 0 5.973-5.973 5.98 5.98 0 0 0-5.973-5.972Zm0 8.02a2.052 2.052 0 1 1 2.051-2.051c0 1.132-.919 2.05-2.051 2.05Zm5.125-26.989a5.98 5.98 0 0 0-5.973 5.973 5.98 5.98 0 0 0 5.973 5.973 5.98 5.98 0 0 0 5.973-5.973 5.98 5.98 0 0 0-5.973-5.973Zm0 8.02a2.052 2.052 0 0 1 0-4.101c1.129 0 2.05.917 2.05 2.05 0 1.129-.917 2.05-2.05 2.05Zm18.512-9a5.98 5.98 0 0 0-5.973 5.972 5.98 5.98 0 0 0 5.973 5.973 5.98 5.98 0 0 0 5.973-5.973 5.98 5.98 0 0 0-5.973-5.972Zm0 8.02a2.05 2.05 0 1 1-.001-4.097 2.05 2.05 0 0 1 .001 4.096Zm5.762 33.226a5.98 5.98 0 0 0 5.972-5.973 5.98 5.98 0 0 0-5.972-5.972 5.98 5.98 0 0 0-5.973 5.972 5.98 5.98 0 0 0 5.973 5.973Zm0-8.02a2.05 2.05 0 1 1 0 4.098 2.05 2.05 0 0 1-.001-4.097Z"/></svg>