<svg xmlns="http://www.w3.org/2000/svg" width="14.004" height="14.002" fill="none" overflow="visible"><path fill="#6BBBAE" d="M10.502 2.002c-.017.002-.033.006-.05.01a3.963 3.963 0 0 0-6.9 0 .402.402 0 0 0-.05-.01 3.491 3.491 0 0 0-1.5 6.65v4.85a.5.5 0 0 0 .5.5h9a.5.5 0 0 0 .5-.5v-4.85a3.492 3.492 0 0 0-1.5-6.65Zm-7.5 11v-1h8v1Zm8.333-5.154a.498.498 0 0 0-.333.47v2.684h-1.41l.403-2.418a.5.5 0 1 0-.986-.164l-.43 2.582H7.502v-2.5a.5.5 0 0 0-1 0v2.5H5.426l-.43-2.582a.5.5 0 1 0-.987.164l.403 2.418h-1.41V8.318c0-.212-.134-.4-.333-.47a2.486 2.486 0 0 1 .463-4.809 3.961 3.961 0 0 0-.13.963.5.5 0 0 0 1 0 3 3 0 1 1 6 0 .5.5 0 0 0 1 0 3.961 3.961 0 0 0-.13-.963 2.485 2.485 0 0 1 .463 4.809Z"/></svg>