<svg xmlns="http://www.w3.org/2000/svg" width="68.844" height="63.601" fill="none" overflow="visible"><path fill="#6BBBAE" d="M66.188 41.446H62.5c.29-.824.458-1.707.458-2.633a7.886 7.886 0 0 0-.891-3.64 7.819 7.819 0 0 0 3.988-6.813c0-.879-.152-1.723-.422-2.515h.555a2.655 2.655 0 0 0 2.656-2.657C68.844 10.403 53.404 0 34.426 0 15.442.004.004 10.406.004 23.191a2.655 2.655 0 0 0 2.656 2.657h.555a7.768 7.768 0 0 0-.422 2.515c0 2.922 1.614 5.469 3.989 6.813a7.9 7.9 0 0 0-.895 3.64c0 .922.168 1.805.457 2.633H2.657A2.655 2.655 0 0 0 0 44.105c0 10.934 15.117 19.496 34.418 19.496s34.418-8.562 34.418-19.496a2.656 2.656 0 0 0-2.656-2.656ZM60.747 28.36a2.52 2.52 0 0 1-2.516 2.516H52.2l4.27-5.028h1.761a2.52 2.52 0 0 1 2.516 2.516Zm-16.61 3.813-5.37-6.329h10.742Zm-9.714-26.86c14.316 0 26.613 6.739 28.773 15.228H5.649c2.16-8.49 14.46-15.227 28.773-15.227ZM31.802 25.85l4.27 5.027H10.613a2.52 2.52 0 0 1-2.515-2.516 2.519 2.519 0 0 1 2.515-2.515h21.189ZM11.197 38.817a2.636 2.636 0 0 1 2.633-2.632h26.752l1.536 1.808a2.652 2.652 0 0 0 4.047 0l1.535-1.808h7.324a2.633 2.633 0 0 1 0 5.265l-41.2-.004a2.638 2.638 0 0 1-2.632-2.632Zm23.227 19.474c-13.926 0-25.941-5.06-28.574-11.536h57.152c-2.633 6.473-14.652 11.536-28.574 11.536Zm11.64-42.54a2.656 2.656 0 0 1 0-3.753l.743-.743a2.657 2.657 0 0 1 3.754 0 2.657 2.657 0 0 1 0 3.754l-.742.742a2.655 2.655 0 0 1-3.754 0Zm-20.687-2.414a2.657 2.657 0 0 1 0-3.754l.742-.742a2.657 2.657 0 0 1 3.754 0 2.657 2.657 0 0 1 0 3.754l-.742.742c-.52.52-1.2.778-1.88.778-.68 0-1.359-.258-1.878-.778Zm-8.93 3.496a2.656 2.656 0 0 1 0-3.753 2.657 2.657 0 0 1 3.754 0l.742.742a2.654 2.654 0 1 1-3.754 3.754Zm19.297.067a2.654 2.654 0 1 1 3.754-3.754l.742.742a2.653 2.653 0 0 1-1.879 4.531c-.68 0-1.36-.257-1.875-.777Z"/></svg>