<svg xmlns="http://www.w3.org/2000/svg" width="60.667" height="60.657" fill="none" overflow="visible"><g fill="#DF4661"><path d="M.72 60.657a21.466 21.466 0 0 0 3.14-1 39.184 39.184 0 0 0 7.2-3.73 45.67 45.67 0 0 0 4.22-3.09 29.324 29.324 0 0 0 4-4.11c1.32-1.57 2.56-3.19 3.85-4.92a36.012 36.012 0 0 0 3.3-5.7 21.322 21.322 0 0 1 3.63-5.37 15.654 15.654 0 0 1 5.18-3.54c.89-.41 1.78-.81 2.62-1.22.081-.043.158-.093.23-.15a7.608 7.608 0 0 0 7.46-1.94l2.74-2.74 11.9-11.91a1.501 1.501 0 1 0-2.12-2.12l-11.23 11.24a.609.609 0 0 1-.86 0l-1.34-1.34a.61.61 0 0 1 0-.86l11.2-11.24a1.5 1.5 0 0 0-2.12-2.12l-11.2 11.24a.609.609 0 0 1-.86 0l-1.33-1.33a.61.61 0 0 1 0-.86l11.22-11.25a1.501 1.501 0 1 0-2.12-2.12l-11.67 11.67-3 3a7.611 7.611 0 0 0-1.92 7.39 1.513 1.513 0 0 0-.15.23c-.42.84-.81 1.73-1.22 2.62a15.619 15.619 0 0 1-3.54 5.18 21.26 21.26 0 0 1-5.37 3.63 36.131 36.131 0 0 0-5.72 3.34c-1.69 1.28-3.36 2.54-4.91 3.81a29.379 29.379 0 0 0-4.11 4 46.042 46.042 0 0 0-3.09 4.22 39.216 39.216 0 0 0-3.73 7.2 21.626 21.626 0 0 0-1 3.14Z"/><path d="M11.609 21.787a43.514 43.514 0 0 0 12.81 7.63c.481-.35.938-.731 1.37-1.14a12.176 12.176 0 0 0 2.59-3.69L5.359 1.447a3.232 3.232 0 0 0-4.57 0c-2.63 2.63 1.94 11.47 4.57 14.1Zm44.18 27.65a46.042 46.042 0 0 0-3.09-4.22 29.379 29.379 0 0 0-4.11-4c-1.56-1.27-3.23-2.52-4.91-3.81a36.012 36.012 0 0 0-5.7-3.3 26.635 26.635 0 0 1-2.88-1.74 11.253 11.253 0 0 0-2.88 2.18 25.624 25.624 0 0 1 1.94 3.29 36.012 36.012 0 0 0 3.3 5.7c1.28 1.69 2.54 3.36 3.81 4.91a29.379 29.379 0 0 0 4 4.11 46.042 46.042 0 0 0 4.22 3.09 39.184 39.184 0 0 0 7.2 3.73c1.02.413 2.069.747 3.14 1l.71-.71a21.587 21.587 0 0 0-1-3.14 39.204 39.204 0 0 0-3.75-7.09Z"/></g></svg>