<svg xmlns="http://www.w3.org/2000/svg" width="79.809" height="80.119" fill="none" overflow="visible"><path fill="#6BBBAE" d="M6.559 53.589a6.591 6.591 0 0 0 5.558-3.013 6.593 6.593 0 0 0 5.557 3.013 6.591 6.591 0 0 0 5.558-3.013 6.591 6.591 0 0 0 5.558 3.013 6.593 6.593 0 0 0 5.557-3.013 6.592 6.592 0 0 0 5.558 3.013 6.592 6.592 0 0 0 5.558-3.013 6.593 6.593 0 0 0 5.557 3.013 6.591 6.591 0 0 0 5.558-3.013 6.591 6.591 0 0 0 5.558 3.013 6.593 6.593 0 0 0 5.557-3.013 6.591 6.591 0 0 0 5.558 3.013c3.616 0 6.558-2.865 6.558-6.388a1 1 0 0 0-2 0c0 2.419-2.045 4.388-4.558 4.388s-4.558-1.969-4.558-4.388a1 1 0 0 0-2 0c0 2.419-2.044 4.388-4.557 4.388-2.513 0-4.558-1.969-4.558-4.388V6.615A4.62 4.62 0 0 1 62.193 2a4.62 4.62 0 0 1 4.615 4.615 1 1 0 0 0 2 0A6.623 6.623 0 0 0 62.193 0a6.623 6.623 0 0 0-6.615 6.615v6.041H24.231V6.615A4.62 4.62 0 0 1 28.846 2a4.62 4.62 0 0 1 4.615 4.615 1 1 0 0 0 2 0A6.623 6.623 0 0 0 28.846 0a6.623 6.623 0 0 0-6.615 6.615v40.586c0 2.419-2.045 4.388-4.558 4.388s-4.557-1.969-4.557-4.388a1 1 0 0 0-2 0c0 2.419-2.045 4.388-4.558 4.388S2 49.62 2 47.201a1 1 0 0 0-2 0c.002 3.523 2.943 6.388 6.559 6.388Zm49.016-18.652H24.231v-9.141h31.344Zm-4.558 16.652c-2.513 0-4.557-1.969-4.557-4.388a1 1 0 0 0-2 0c0 2.419-2.045 4.388-4.558 4.388s-4.558-1.969-4.558-4.388a1 1 0 0 0-2 0c0 2.419-2.044 4.388-4.557 4.388-2.513 0-4.558-1.969-4.558-4.388V36.937h31.344v10.265c.002 2.418-2.043 4.387-4.556 4.387Zm4.558-36.933v9.14H24.231v-9.14ZM6.559 66.854a6.591 6.591 0 0 0 5.558-3.013 6.593 6.593 0 0 0 5.557 3.013 6.591 6.591 0 0 0 5.558-3.013 6.591 6.591 0 0 0 5.558 3.013 6.593 6.593 0 0 0 5.557-3.013 6.592 6.592 0 0 0 5.558 3.013 6.592 6.592 0 0 0 5.558-3.013 6.593 6.593 0 0 0 5.557 3.013 6.591 6.591 0 0 0 5.558-3.013 6.591 6.591 0 0 0 5.558 3.013 6.593 6.593 0 0 0 5.557-3.013 6.591 6.591 0 0 0 5.558 3.013c3.616 0 6.558-2.865 6.558-6.388a1 1 0 0 0-2 0c0 2.419-2.045 4.388-4.558 4.388s-4.558-1.969-4.558-4.388a1 1 0 0 0-2 0c0 2.419-2.044 4.388-4.557 4.388-2.513 0-4.558-1.969-4.558-4.388a1 1 0 0 0-2 0c0 2.419-2.045 4.388-4.558 4.388s-4.557-1.969-4.557-4.388a1 1 0 0 0-2 0c0 2.419-2.045 4.388-4.558 4.388s-4.558-1.969-4.558-4.388a1 1 0 0 0-2 0c0 2.419-2.044 4.388-4.557 4.388-2.513 0-4.558-1.969-4.558-4.388a1 1 0 0 0-2 0c0 2.419-2.045 4.388-4.558 4.388s-4.557-1.969-4.557-4.388a1 1 0 0 0-2 0c0 2.419-2.045 4.388-4.558 4.388s-4.558-1.969-4.558-4.388a1 1 0 0 0-2 0c.001 3.523 2.942 6.388 6.558 6.388Zm0 13.265a6.591 6.591 0 0 0 5.558-3.013 6.593 6.593 0 0 0 5.557 3.013 6.591 6.591 0 0 0 5.558-3.013 6.591 6.591 0 0 0 5.558 3.013 6.593 6.593 0 0 0 5.557-3.013 6.592 6.592 0 0 0 5.558 3.013 6.592 6.592 0 0 0 5.558-3.013 6.593 6.593 0 0 0 5.557 3.013 6.591 6.591 0 0 0 5.558-3.013 6.591 6.591 0 0 0 5.558 3.013 6.593 6.593 0 0 0 5.557-3.013 6.591 6.591 0 0 0 5.558 3.013c3.616 0 6.558-2.865 6.558-6.387a1 1 0 0 0-2 0c0 2.419-2.045 4.387-4.558 4.387s-4.558-1.968-4.558-4.387a1 1 0 0 0-2 0c0 2.419-2.044 4.387-4.557 4.387-2.513 0-4.558-1.968-4.558-4.387a1 1 0 0 0-2 0c0 2.419-2.045 4.387-4.558 4.387s-4.557-1.968-4.557-4.387a1 1 0 0 0-2 0c0 2.419-2.045 4.387-4.558 4.387s-4.558-1.968-4.558-4.387a1 1 0 0 0-2 0c0 2.419-2.044 4.387-4.557 4.387-2.513 0-4.558-1.968-4.558-4.387a1 1 0 0 0-2 0c0 2.419-2.045 4.387-4.558 4.387s-4.557-1.968-4.557-4.387a1 1 0 0 0-2 0c0 2.419-2.045 4.387-4.558 4.387s-4.558-1.968-4.558-4.387a1 1 0 0 0-2 0c.001 3.522 2.942 6.387 6.558 6.387Z"/></svg>