<svg xmlns="http://www.w3.org/2000/svg" width="56" height="55" fill="none" overflow="visible"><path fill="#6BBBAE" d="m24.872 33.35-6.952-2.339-7.739 4.463a.858.858 0 0 1-1.226-.418c-1.038-2.597-1.794-5.456-2.297-8.653-2.762 11.379 3.974 22.91 15.131 26.166-2.515-2.047-4.623-4.125-6.354-6.305-.323-.4-.195-1.012.251-1.265l7.739-4.463ZM7.855 45.71c.498-2.115-1.064-3.922-3.021-3.922a3.115 3.115 0 0 0-3.02 2.306c-.449 1.637.538 3.371 2.202 3.817a3.134 3.134 0 0 0 3.839-2.2Zm18.244-13.725c.408.135.662.553.559.973l-1.667 8.28a.796.796 0 0 1-.407.576l-7.203 4.158c2.203 2.585 4.938 5.036 8.366 7.478.67.478.308 1.547-.502 1.547-.031 0-.064-.013-.095-.013a23.748 23.748 0 0 1-10.033-3.638 23.806 23.806 0 0 1-5.662-5.139c-.585 2.047-2.48 3.515-4.623 3.515-3.126 0-5.51-3-4.657-6.056.726-2.595 3.279-4.071 5.851-3.412-.974-2.385-1.509-4.883-1.636-7.481a23.617 23.617 0 0 1 1.857-10.496c.362-.82 1.562-.594 1.636.249.41 4.192 1.164 7.795 2.297 10.983l7.206-4.158a.896.896 0 0 1 .723-.067l7.99 2.7Zm27.775 14.481c.41-.722.536-1.57.315-2.374-.743-2.706-4.353-3.111-5.725-.746a3.105 3.105 0 0 0 1.164 4.25c1.505.863 3.393.359 4.246-1.13Zm-19.659 6.102C45.415 49.3 52.1 37.756 49.346 26.402c-.503 3.197-1.259 6.057-2.298 8.654a.856.856 0 0 1-1.225.418l-7.739-4.463-6.952 2.339 1.447 7.186 7.738 4.462c.447.254.575.866.252 1.266-1.731 2.18-3.839 4.26-6.354 6.304Zm18.208-3.015c-2.521.697-5.128-.796-5.883-3.356a23.836 23.836 0 0 1-5.661 5.152 23.753 23.753 0 0 1-10.034 3.638c-.031 0-.063.013-.094.013-.808 0-1.173-1.069-.503-1.548 3.428-2.438 6.164-4.89 8.367-7.477l-7.203-4.158a.806.806 0 0 1-.408-.577l-1.667-8.28a.842.842 0 0 1 .567-.973l7.99-2.7a.888.888 0 0 1 .723.066l7.203 4.158c1.133-3.186 1.89-6.791 2.298-10.982a.897.897 0 0 1 .723-.758.858.858 0 0 1 .913.507c1.384 3.299 2.046 6.925 1.856 10.495a22.515 22.515 0 0 1-1.636 7.481c2.572-.659 5.131.822 5.852 3.412.712 2.536-.826 5.175-3.403 5.887ZM33.807 13.501a.854.854 0 0 1 .693-.192c2.736.407 5.599 1.176 8.618 2.328-8.442-8.039-21.801-8.026-30.229 0 3.02-1.152 5.881-1.921 8.651-2.328.464-.082.944.282.944.835v8.936l5.536 4.823 5.505-4.823-.002-8.936a.82.82 0 0 1 .284-.643ZM28.02 7.918c1.7 0 3.115-1.4 3.115-3.117 0-1.719-1.418-3.108-3.115-3.108-1.731 0-3.146 1.391-3.146 3.108s1.415 3.117 3.146 3.117Zm7.204 15.545a.856.856 0 0 1-.311.633l-6.354 5.58a.848.848 0 0 1-1.1 0l-6.354-5.58a.827.827 0 0 1-.282-.633v-8.325c-3.367.597-6.859 1.749-10.664 3.491-.849.372-1.567-.602-1.039-1.275a23.648 23.648 0 0 1 8.146-6.871c2.329-1.174 4.749-1.955 7.298-2.316a4.808 4.808 0 0 1-1.385-3.366C23.179 2.16 25.348 0 28.023 0c2.644 0 4.813 2.157 4.813 4.801a4.81 4.81 0 0 1-1.385 3.366 23.604 23.604 0 0 1 7.298 2.316 23.691 23.691 0 0 1 8.146 6.871c.531.676-.2 1.642-1.008 1.276-3.839-1.743-7.331-2.895-10.664-3.492v8.325Z"/></svg>