<svg xmlns="http://www.w3.org/2000/svg" width="80" height="80" fill="none" overflow="visible"><path fill="#6BBBAE" d="M79 66.784h-3.541V46.98a2.953 2.953 0 0 0-2.95-2.949h-2.798V28.77a1 1 0 0 0-1-1h-3.705V12.345h2.949a1 1 0 0 0 .673-1.74L57.295.285a1 1 0 0 0-1.346 0l-11.333 10.32a1 1 0 0 0 .673 1.74h2.949v15.424h-3.706a1 1 0 0 0-1 1V44.03h-2.798a2.953 2.953 0 0 0-2.949 2.95v19.804H31.81c.63-.838.972-1.858.975-2.907v-4.898c0-1.6-.781-3.01-1.97-3.907 1.189-.896 1.97-2.306 1.97-3.907v-4.897c0-1.601-.781-3.011-1.97-3.908 1.189-.896 1.97-2.306 1.97-3.907v-4.896c0-1.6-.781-3.011-1.97-3.908 1.189-.896 1.97-2.306 1.97-3.907v-4.897a4.913 4.913 0 0 0-4.907-4.908h-3.36V6.235A6.242 6.242 0 0 0 18.281 0a6.242 6.242 0 0 0-6.236 6.235v9.703h-3.36a4.913 4.913 0 0 0-4.908 4.907v4.897c0 1.6.781 3.011 1.97 3.907-1.189.897-1.97 2.307-1.97 3.908v4.896c0 1.6.781 3.011 1.97 3.907-1.189.897-1.97 2.307-1.97 3.908v4.897c0 1.6.781 3.011 1.97 3.907-1.189.897-1.97 2.307-1.97 3.907v4.898c0 1.092.37 2.091.975 2.907H1a1 1 0 0 0-1 1V79a1 1 0 0 0 1 1h78a1 1 0 0 0 1-1V67.784a1 1 0 0 0-1-1ZM56.622 2.376l8.75 7.969h-17.5Zm-6.384 9.969h12.768v15.424H50.238Zm-4.706 17.424h22.18V44.03h-22.18V29.77Zm-5.747 17.21a.95.95 0 0 1 .949-.949H72.51a.95.95 0 0 1 .949.95v19.804h-7.46v-6.347c0-5.091-3.846-9.328-8.754-9.645-2.628-.166-5.123.724-7.035 2.514a9.415 9.415 0 0 0-2.965 6.843v6.635h-7.46V46.98Zm9.46 19.805V60.15a7.312 7.312 0 0 1 2.333-5.384c1.504-1.409 3.464-2.108 5.537-1.977 3.86.25 6.884 3.61 6.884 7.649v6.347H49.245Zm-35.2-60.549A4.241 4.241 0 0 1 18.282 2a4.24 4.24 0 0 1 4.235 4.235v9.703h-8.471V6.235ZM5.778 25.742v-4.897a2.91 2.91 0 0 1 2.907-2.907h19.193a2.91 2.91 0 0 1 2.907 2.907v4.897a2.91 2.91 0 0 1-2.907 2.907H8.685a2.91 2.91 0 0 1-2.907-2.907Zm0 12.711v-4.896a2.91 2.91 0 0 1 2.907-2.908h19.193a2.91 2.91 0 0 1 2.907 2.908v4.896a2.91 2.91 0 0 1-2.907 2.907H8.685a2.91 2.91 0 0 1-2.907-2.907Zm0 12.712v-4.897a2.91 2.91 0 0 1 2.907-2.908h19.193a2.91 2.91 0 0 1 2.907 2.908v4.897a2.91 2.91 0 0 1-2.907 2.907H8.685a2.91 2.91 0 0 1-2.907-2.907Zm0 12.712v-4.898a2.91 2.91 0 0 1 2.907-2.907h19.193a2.91 2.91 0 0 1 2.907 2.907v4.898a2.91 2.91 0 0 1-2.907 2.907H8.685a2.91 2.91 0 0 1-2.907-2.907ZM78 78H2v-9.216h76Z"/></svg>