<svg xmlns="http://www.w3.org/2000/svg" width="56.016" height="80" fill="none" overflow="visible"><g fill="#6BBBAE"><path d="M41.154 0c-7.887 0-14.29 5.987-14.812 13.713H3.974a.998.998 0 0 0-.92.61c-.277.652-6.683 16.076-.073 26.053 3.395 5.124 9.58 7.8 18.377 7.974V78h-8.992a1 1 0 0 0 0 2h19.982a1 1 0 0 0 0-2h-8.99V48.347c8.71-.204 14.839-2.879 18.213-7.971 2.263-3.416 3-7.47 2.98-11.35 6.69-1.543 11.465-7.423 11.465-14.313C56.014 6.6 49.348 0 41.154 0ZM4.656 15.713h35.238c.614 1.635 2.222 6.34 2.566 11.573-2.319.275-3.651 1.421-4.844 2.449-1.262 1.088-2.352 2.026-4.613 2.026-2.261 0-3.351-.938-4.613-2.026-1.366-1.177-2.914-2.51-5.918-2.51-3.003 0-4.55 1.333-5.915 2.51-1.261 1.088-2.35 2.026-4.61 2.026-2.26 0-3.349-.938-4.61-2.026-1.258-1.084-2.685-2.288-5.247-2.473.348-5.224 1.952-9.916 2.565-11.549Zm35.243 23.563c-3.12 4.705-9.05 7.09-17.624 7.09-8.574 0-14.504-2.385-17.625-7.09-1.96-2.956-2.621-6.533-2.624-10.02 1.855.155 2.865 1.01 4.006 1.995 1.365 1.176 2.913 2.51 5.917 2.51 3.002 0 4.55-1.334 5.914-2.51 1.261-1.088 2.35-2.027 4.61-2.027 2.26 0 3.35.939 4.612 2.027 1.367 1.176 2.915 2.51 5.919 2.51 3.004 0 4.552-1.334 5.918-2.51 1.056-.91 2-1.708 3.602-1.947-.009 3.471-.673 7.03-2.625 9.972Zm4.573-12.277c-.458-6.623-2.81-12.286-2.974-12.675a1 1 0 0 0-.92-.61h-12.23C28.862 7.102 34.374 2 41.154 2c7.091 0 12.86 5.703 12.86 12.713 0 5.824-3.95 10.823-9.542 12.286Z"/><path d="M40.919 5.5a1 1 0 0 0-1 1v1.882a1 1 0 1 0 2 0V6.5a1 1 0 0 0-1-1Zm-5.204 2.709a1 1 0 1 0-1.406 1.422l1.345 1.33A.999.999 0 1 0 37.06 9.54Zm10.468 10.356a1 1 0 1 0-1.406 1.422l1.345 1.33a.997.997 0 0 0 1.414-.008 1 1 0 0 0-.008-1.414Zm3.089-4.802h-1.903a1 1 0 1 0 0 2h1.902a1 1 0 0 0 0-2ZM45.48 11.25a1 1 0 0 0 .704-.288l1.345-1.332a1.001 1.001 0 0 0-1.408-1.422l-1.344 1.33a1 1 0 0 0 .703 1.712Z"/></g></svg>