<svg xmlns="http://www.w3.org/2000/svg" width="80.001" height="80" fill="none" overflow="visible"><path fill="#6BBBAE" d="M.31 78.185a1 1 0 0 0 1.245.108c3.884-2.59 9.81-3.108 15.85-1.383 7.41 2.11 15.24.393 21.05-4.464.03.029.055.06.084.088a23 23 0 0 0 22.583 5.836c4.378-1.254 11.412-1.157 15.825 1.487a1 1 0 0 0 1.346-1.412c-2.589-3.884-3.106-9.81-1.384-15.85a22.924 22.924 0 0 0-4.464-21.052c.029-.029.06-.053.09-.082a23.004 23.004 0 0 0 5.834-22.584c-1.252-4.378-1.156-11.413 1.489-15.824a1 1 0 0 0-1.413-1.346c-3.884 2.59-9.81 3.108-15.85 1.383a22.926 22.926 0 0 0-21.05 4.464c-.03-.029-.055-.06-.084-.088C35.564 1.569 26.91-.664 18.878 1.63 14.499 2.884 7.465 2.788 3.053.142a1 1 0 0 0-1.346 1.412c2.589 3.885 3.106 9.81 1.384 15.852a22.922 22.922 0 0 0 4.462 21.05c-.028.028-.059.054-.087.083a23.005 23.005 0 0 0-5.835 22.584C2.883 65.501 2.787 72.536.142 76.947c-.24.401-.17.915.168 1.238Zm74.676-16.14c-1.526 5.351-1.41 10.667.24 14.815-4.712-1.686-10.592-1.575-14.654-.414a20.995 20.995 0 0 1-20.619-5.326l-.021-.024c.176-.175.359-.342.53-.524 6.608-7.003 7.963-17.266 4.037-25.61a22.822 22.822 0 0 0 11.791 3.235 22.749 22.749 0 0 0 14.674-5.31 20.932 20.932 0 0 1 4.022 19.158Zm-33.569-51.65c3.206 3.88 4.891 8.713 4.774 13.818-.126 5.437-2.305 10.465-6.123 14.3-6.64-8.068-6.322-20.033.924-27.712.136-.144.286-.267.425-.406ZM54.792 35.3c5.195 0 10.39 1.9 14.406 5.692.144.135.275.28.414.418-3.883 3.21-8.726 4.896-13.826 4.78-5.437-.126-10.464-2.305-14.3-6.124A20.91 20.91 0 0 1 54.792 35.3Zm-43.99 3.706c-.144-.135-.275-.28-.414-.418a20.75 20.75 0 0 1 13.826-4.78c5.436.126 10.464 2.305 14.3 6.122-8.069 6.64-20.034 6.323-27.712-.924ZM39.008 69.2c-.136.143-.28.275-.419.414-3.209-3.882-4.897-8.717-4.78-13.826.125-5.437 2.305-10.466 6.123-14.302 6.64 8.069 6.322 20.035-.924 27.714Zm17.241-65c1.93 0 3.88.266 5.797.813 5.35 1.526 10.666 1.41 14.814-.24-1.684 4.71-1.575 10.59-.414 14.654 2.1 7.33.061 15.223-5.326 20.62l-.023.02c-.176-.176-.344-.359-.526-.53-7.001-6.608-17.266-7.962-25.608-4.037a22.817 22.817 0 0 0 3.227-11.24c.13-5.63-1.74-10.957-5.296-15.22A20.905 20.905 0 0 1 56.249 4.2ZM5.014 17.955c1.526-5.351 1.41-10.667-.24-14.815 4.71 1.684 10.59 1.573 14.654.414A20.99 20.99 0 0 1 40.047 8.88l.021.024c-.176.175-.358.342-.53.524-6.609 7.003-7.964 17.266-4.037 25.609a22.812 22.812 0 0 0-11.24-3.228c-5.607-.108-10.956 1.748-15.226 5.303a20.933 20.933 0 0 1-4.021-19.157ZM8.88 39.953l.023-.022c.176.177.344.36.526.531 4.4 4.153 10.088 6.234 15.778 6.234 3.4-.001 6.757-.753 9.832-2.201a22.816 22.816 0 0 0-3.23 11.246c-.129 5.631 1.743 10.96 5.303 15.225a20.934 20.934 0 0 1-19.158 4.02c-2.525-.72-5.043-1.074-7.434-1.074-2.674 0-5.19.443-7.38 1.314 1.684-4.71 1.575-10.59.414-14.654a21.003 21.003 0 0 1 5.326-20.62Z"/></svg>