<svg xmlns="http://www.w3.org/2000/svg" width="79.895" height="80.186" fill="none" overflow="visible"><g fill="#6BBBAE"><path d="M3.101 65.472v2.042H1a1 1 0 0 0-1 1v10.672a1 1 0 0 0 1 1h77.895a1 1 0 0 0 1-1V68.514a1 1 0 0 0-1-1h-2.244v-2.042c0-19.33-14.994-35.213-33.961-36.657a5.082 5.082 0 0 0 2.271-4.23 5.09 5.09 0 0 0-5.085-5.085 5.09 5.09 0 0 0-5.085 5.085c0 1.763.904 3.317 2.271 4.23C18.095 30.259 3.101 46.142 3.101 65.472Zm74.794 12.714H2v-8.672h75.895ZM39.876 21.5a3.089 3.089 0 0 1 3.085 3.085 3.089 3.089 0 0 1-3.085 3.085 3.089 3.089 0 0 1-3.085-3.085 3.089 3.089 0 0 1 3.085-3.085Zm0 9.197c19.175 0 34.775 15.601 34.775 34.775v2.042H5.101v-2.042c0-19.175 15.6-34.775 34.775-34.775Z"/><path d="M12.821 58.926a1 1 0 0 0 1.163-.804c1.648-9.06 8.458-16.48 17.349-18.904a1 1 0 0 0-.526-1.93c-9.629 2.625-17.005 10.663-18.791 20.477a1 1 0 0 0 .805 1.161Zm15.634-46.867a1.002 1.002 0 0 0 1.361.387.998.998 0 0 0 .387-1.359l-3.775-6.774a1 1 0 0 0-1.747.972Zm-13.577 2.449a1.001 1.001 0 0 0 .534 1.31l8.415 3.543a1.003 1.003 0 0 0 1.315-1.299 1.001 1.001 0 0 0-.538-.545l-8.415-3.543a1.002 1.002 0 0 0-1.311.534Zm25.696-5.59V1a1 1 0 0 0-2 0v7.918a1 1 0 0 0 2 0Zm13.871-4.993a.994.994 0 0 0-.76-.089.993.993 0 0 0-.6.476l-3.944 7.078a1 1 0 1 0 1.748.972l3.944-7.078a1 1 0 0 0-.388-1.359Zm.308 14.742a1 1 0 0 0 1.31.534l8.037-3.384a1.001 1.001 0 0 0-.776-1.844l-8.037 3.384a1.001 1.001 0 0 0-.534 1.31Z"/></g></svg>